<svg version="1" xmlns="http://www.w3.org/2000/svg" width="1472" height="1472" viewBox="0 0 1104.000000 1104.000000"><path d="M541.2 3.9c-4.1 1.6-11.2 7.9-11.2 9.8 0 .9-6.4 9.2-9.9 12.8-1 1.1-9.4 12.1-18.6 24.5-9.2 12.4-17.4 23-18.1 23.6-.8.6-1.4 1.6-1.4 2.2 0 .6-.3 1.2-.7 1.4-.5.1-3.5 3.7-6.8 7.8s-6.5 8.1-7.2 8.8c-.7.7-2.9 3.4-5 6s-4.2 5.2-4.8 5.8c-.5.6-3 3.5-5.5 6.4-8 9.4-13.2 15.5-14.9 17.1-.9.9-3.6 4-6.1 7-5.4 6.3-5.4 6.3-20 21.9-32.6 34.9-70.2 72.5-95.9 96-13.2 12-13 11.9-20.6 18.5-3.8 3.3-7.6 6.7-8.5 7.5-.8.8-6.1 5.2-11.5 9.8-5.5 4.6-10.9 9.1-12 10-5.9 5.2-25.2 20.7-33 26.7-4.9 3.9-9.6 7.5-10.3 8.2-.7.7-1.7 1.3-2.1 1.3-.4 0-1.7.8-2.9 1.8-1.1 1-3.3 2.7-4.8 3.8-1.5 1-4.5 3.3-6.8 4.9-2.2 1.7-6.8 4.9-10.1 7-3.3 2.2-6.1 4.3-6.3 4.7-.2.5-.8.8-1.3.8-1 0-15.8 10.8-22 16.1-2 1.7-5.1 5.6-7 8.6-2.8 4.8-3.3 6.5-3.3 11.8 0 10.2 5.4 17.6 19.9 27.5 2.8 1.8 5.2 3.6 5.5 4 .3.3 2.1 1.7 4 3 1.9 1.4 4 2.8 4.5 3.3.6.4 6 4.4 12 8.9 14.6 10.8 34.9 26.1 35.5 26.9.3.3 3.9 3.1 8.1 6.2 4.2 3.1 8.3 6.2 9.1 6.9.7.7 3.4 2.8 5.8 4.7 5.3 4.1 27.1 22.1 28.5 23.7.6.5 4.4 3.9 8.5 7.5 4.1 3.5 7.7 6.6 8 6.9.3.3 3.6 3.2 7.3 6.4 3.7 3.3 8.5 7.6 10.6 9.5 2 2 8.4 7.9 14 13.1 31.3 28.9 67.6 65.2 86.1 86 9.9 11.1 9.8 11 16.2 18.7 3.4 4 6.5 7.3 7.1 7.3.6 0 .8.3.4.6-.3.4 1.2 2.5 3.3 4.8 2.2 2.2 4 4.5 4 5s.6 1.4 1.4 2c.8.6 10 11.9 20.4 25.1 10.5 13.2 19.7 24.7 20.4 25.5.7.8 3.1 4 5.2 7 2.2 3 4.3 5.7 4.8 5.8.4.2.8.8.8 1.4 0 .5 1.9 3.5 4.3 6.6 2.3 3.2 4.8 6.6 5.5 7.7 4.2 6.6 5.2 8.1 6.1 9.2.6.7 1.1 1.5 1.1 1.8 0 1.2 10.5 16.1 12.4 17.7 2.9 2.3 13 5 18.7 5 5.4-.1 12.1-2.8 15.9-6.4 2.8-2.6 7-8 11.5-14.8 1.7-2.5 3.3-4.7 3.8-4.8.4-.2.7-1 .7-1.8s.5-1.4 1-1.4c.6 0 1-.6 1-1.4 0-.8.3-1.6.8-1.8.7-.3 5.3-6.1 8.2-10.4 1.9-2.9 28.4-36.7 30.2-38.5.7-.8 3.2-3.9 5.5-6.9 2.4-3 5.5-6.9 7-8.6 1.6-1.8 3.7-4.2 4.8-5.6 5.8-7 18.3-21.6 20.4-23.8 1.3-1.4 3.7-4.2 5.5-6.3 1.7-2.1 5.6-6.5 8.6-9.7 3-3.3 7.8-8.5 10.5-11.5 24.9-28 78.7-81.2 107.9-106.8 3.2-2.9 7.1-6.3 8.6-7.7 3.3-2.9 5.4-4.7 13.5-11.4 3.3-2.7 6.7-5.7 7.7-6.5.9-.9 3.1-2.7 4.9-4.1 1.8-1.4 3.7-3 4.3-3.5.6-.6 3.4-2.8 6.1-5 2.8-2.2 5.2-4.2 5.5-4.6.5-.5 12.1-10 15-12.2.9-.7 4.7-3.7 8.5-6.8 12.6-10 31.8-24.4 40-29.9 4.4-2.9 8.2-5.6 8.5-6 .3-.3 5-3.4 10.5-6.9 13.3-8.2 18.3-12.6 21-18.4 4.1-8.7 1.7-20.2-6.4-30.5-1.4-1.8-8.4-7.2-15.6-12-9.8-6.5-58.2-42.2-66.8-49.2-1.3-1.1-18.4-14.6-21.5-17-1.1-.8-4-3.3-6.5-5.5s-5.4-4.7-6.5-5.5c-2.3-1.8-11.9-9.9-14.2-12-1.5-1.3-8.5-7.4-16.4-14.1-1.5-1.3-4.5-4-6.6-5.9-2.1-1.9-8.4-7.8-14-13-27.1-25.1-89.7-89.5-107.1-110.3-1.3-1.6-3.4-3.9-4.6-5.2-1.3-1.3-2.3-2.6-2.3-2.9 0-.3-1-1.6-2.2-2.9-2.9-3-5.8-6.3-13.8-16.2-3.6-4.4-6.7-8.2-7-8.5-.3-.3-4.1-5-8.5-10.5s-8.4-10.5-9-11.2c-.5-.7-1.4-1.8-2-2.5-.5-.8-2.9-3.7-5.2-6.5-2.4-2.8-4.3-5.4-4.3-5.8 0-.4-.6-1.2-1.2-1.9-1.4-1.4-4.2-5-8.3-10.6-1.4-1.9-3.2-4.4-4.1-5.5-.8-1.1-6.2-8.5-12-16.5-5.7-8-11.1-15.4-11.9-16.6-.9-1.2-4.1-3.4-7.3-4.9-7.1-3.5-16.5-4.2-23-1.6zm23.5 101.3c3.7 1.1 9.6 3.6 13.2 5.6 3.6 1.9 7.6 4 8.8 4.6 1.3.6 2.3 1.4 2.3 1.8 0 .5.5.8 1 .8 2.5 0 28.3 19.9 48 37 3 2.7 6.6 5.8 8 7 1.4 1.1 4.8 4 7.5 6.4 2.8 2.4 8.4 7.2 12.5 10.7 15.2 12.9 25.2 22.2 43 39.9 15.8 15.8 27.4 28 39 41 3.6 4 7.8 8.6 9.3 10.4 6.4 6.9 15.3 17.2 20.5 23.5 2.1 2.4 6.8 8.1 10.6 12.5 8 9.5 7.9 9.4 17.7 21.6 4.1 5.2 10.7 13.8 14.5 19 3.7 5.2 7.2 9.6 7.6 9.8.5.2.8.9.8 1.7 0 .7.6 1.8 1.4 2.4 1.5 1.3 9.3 12.7 12.4 18.3 3 5.2 4.4 11.3 4.3 18.2-.2 13.9-4.4 23.6-19.6 44.4-8.8 12.2-16.7 22.4-19.2 25.2-1.3 1.3-2.3 2.8-2.3 3.2 0 .5-1 1.9-2.2 3.2-1.3 1.3-3 3.2-3.8 4.2-3.9 4.8-12.3 14.9-13.3 15.9-.7.7-3.4 3.8-6.2 7-17.5 20.4-56 60.4-82.1 85.1-12.5 11.9-21.4 20.2-26 24.3-2.7 2.4-8.5 7.6-12.9 11.6-4.4 4.1-9.4 8.4-11 9.7-1.6 1.3-3.7 3-4.5 3.8-.9.8-3.6 3.1-6 5s-4.9 4.1-5.6 4.7c-.7.7-1.5 1.3-1.8 1.3-.3 0-1.4.8-2.4 1.7-2.7 2.6-9.1 7.8-14.2 11.4-2.4 1.8-4.9 3.6-5.5 4-.5.5-2.3 1.9-4 3.2-5.5 4.4-24.9 17.4-29 19.5-9.8 4.9-21.3 6.7-30.5 4.6-8.1-1.8-11.7-3.3-19.5-8.4-3.8-2.5-7.5-4.7-8-5-.6-.3-2.7-1.7-4.6-3.3-2-1.5-3.9-2.7-4.4-2.7-.4 0-1.9-1-3.4-2.3-1.5-1.2-4-3.1-5.5-4.2-3.1-2.3-13.3-10-15.6-11.8-8.3-6.7-17.7-14.4-18.6-15.2-.6-.5-4.4-3.9-8.4-7.5s-8.5-7.6-10-9c-1.5-1.4-6.6-6.1-11.5-10.5-4.8-4.4-11.4-10.5-14.6-13.5-3.2-3-6.7-6.2-7.7-7-2.2-1.7-9.9-8.6-24.1-21.8-16.8-15.5-44-43.4-58.7-60.1-2.2-2.4-4.9-5.5-6.2-6.9-1.2-1.4-4-4.6-6.1-7.1-2.2-2.5-4.8-5.5-5.8-6.7-19-21.8-45.5-57.2-52.6-70.2-4.9-9.1-5.3-25.1-.7-35.7 1.1-2.5 1.7-4.5 1.5-4.5-1.1 0 15.1-25 17.5-27 .4-.3 2.6-3.2 5-6.5s5.7-7.6 7.4-9.5c1.7-2 4.2-5.1 5.6-6.9 1.4-1.9 3.3-4.3 4.3-5.5 1-1.1 2.8-3.2 3.9-4.6 4.7-5.6 13.3-15.6 14.8-17.1.8-1 4-4.5 7-7.9 8.9-10 9.7-10.9 22.5-24.5 18.4-19.5 44.4-45.1 65.5-64.5 5.7-5.2 12.8-11.8 15.9-14.7 3.2-2.9 6.8-6.2 8.1-7.3 1.4-1.2 5-4.3 8-7 8.3-7.3 9.7-8.5 14.2-12.2 2.3-1.8 5.1-4.2 6.2-5.3 2.5-2.4 27.6-22.3 36.1-28.6 3.3-2.4 6.3-4.8 6.7-5.4.5-.7.8-.7.8 0 0 .5.5.2 1.1-.8.5-.9 1.6-1.7 2.4-1.7.7 0 1.5-.3 1.7-.8 1.1-2.5 18.7-13.1 25.8-15.4 3.8-1.3 17.4-.5 23.7 1.4z"/><path d="M544.7 124.6c-6.9 1.8-13.7 5.6-23.2 13.2-.5.4-6.8 5.2-14 10.7-7.1 5.5-13.1 10.3-13.3 10.7-.2.5-.8.8-1.3.8s-1.7.8-2.7 1.7c-3.7 3.6-7.2 6.3-8.1 6.3-.5 0-1.1.3-1.3.8-.1.4-2.5 2.5-5.3 4.7-2.7 2.2-5.7 4.7-6.6 5.5-.9.8-2.5 2.2-3.5 3-4.1 3.2-16.9 14-21.8 18.5-18.6 16.7-43.2 40.3-63.6 61-20.2 20.6-24.3 25-38.5 41.1-1.1 1.3-4.3 4.9-7.1 8.1-2.9 3.2-7.5 8.5-10.4 11.8-2.9 3.3-5.8 6.4-6.4 7-.6.5-2.9 3.2-5.1 6-2.2 2.7-4.6 5.6-5.3 6.4-.8.8-3.2 3.9-5.5 7s-4.9 6.5-6 7.6c-1 1.1-2.8 3.6-4 5.5-1.1 1.9-2.4 3.7-2.7 4-.3.3-2.5 3.2-4.8 6.6-4.7 6.6-8.1 15.2-8.4 21.1-.2 4.6 1.1 15 2.2 17.2.4.9 1.6 3.4 2.6 5.6 2.7 5.7 9.5 15.6 18.7 27 4.5 5.5 8.3 10.2 8.7 10.5.3.3 1.7 2.1 3.2 4 1.4 1.9 3.4 4.4 4.4 5.5 1.1 1.1 3.9 4.5 6.4 7.5 2.5 3 4.9 6 5.5 6.6.5.6 2.6 3.1 4.6 5.5 2.1 2.4 5.2 6 7 8 1.9 2 8.6 9.2 14.9 16 29.8 32 70.2 71.9 91 89.9 3.6 3.1 15.2 13.3 16.4 14.5.6.6 3.6 3 6.6 5.5 3 2.4 6.3 5.1 7.2 6 3.9 3.5 30.1 24 39.8 31 4.1 3 7.7 5.8 7.8 6.2.2.5 1 .8 1.7.8s1.5.3 1.7.8c.6 1.4 10.2 7 15.6 9.1 8.1 3.2 14.4 3 24.4-1 5-2 17.5-8.9 20.7-11.5.9-.7 3.6-2.9 6.1-4.9 2.5-2 5.5-4.6 6.8-5.6 4.2-3.6 16.2-11.9 17.1-11.9.5 0 1.1-.4 1.3-.9.2-.5 3.2-3.1 6.8-5.8 6.4-4.9 12.3-9.9 16.5-13.8 1.2-1.1 4.8-4.2 8.1-6.9 3.2-2.8 6.6-5.7 7.5-6.5.9-.9 4.5-4.1 7.9-7.1 19.7-17.2 90.9-88.8 100.5-101.1 1.1-1.4 4.1-5 6.7-8 5.7-6.6 21.4-25.9 28.8-35.4 3-3.9 5.7-7.2 6-7.5 1.3-1.1 13.8-18.8 15.9-22.5 5.9-10 6.9-18.5 3.8-31-1.9-7.7-4.1-12.4-9.7-20.5-5.3-7.9-19.9-26.4-21.1-26.8-.5-.2-.9-.8-.9-1.3s-.8-1.8-1.7-3c-1-1.1-2.5-2.9-3.3-3.9-.8-.9-2.6-3.2-4-5.1-2.6-3.4-27.3-33.1-30-36-.8-.9-5.3-5.8-10-11-17.2-19.1-37.7-39.8-58.8-59.8-6.8-6.4-14.1-13.2-16.1-15.1-2-1.9-7-6.4-11.1-10-4-3.6-8-7.2-8.9-8-.9-.9-4.5-4-8.1-7-3.6-2.9-6.9-5.9-7.5-6.4-.5-.6-3.8-3.4-7.2-6.1-3.5-2.8-6.3-5.3-6.3-5.8 0-.4-.6-.7-1.3-.7-.7 0-2.5-1.1-4-2.5-2.4-2.3-22.6-17.9-34-26.3-6.4-4.7-15.9-9.2-20.4-9.7-2.1-.2-3.8-.5-3.8-.6 0-.7-10.1-.3-13.8.7zm6.9 61.2c0 .4.6 2 1.2 3.5.7 1.6 1.2 3.1 1.2 3.4 0 .3.7 1.9 1.5 3.6 1.5 3.3 4.3 11.1 5 13.7.2.8 1.3 3.7 2.5 6.5 1.2 2.7 2.4 6.1 2.6 7.4.3 1.3 1 3.4 1.6 4.5.7 1.2 1.3 2.5 1.4 3.1.1.5 3.9 10.9 8.3 23 4.5 12.1 8.3 22.4 8.4 23 .3 1 3.7 10.4 8.1 22 1.3 3.3 2.6 7.2 3 8.7.6 2.6.4 2.8-2.6 2.9-11 .2-24.6.9-26.3 1.2-1.9.4-2 1.1-1.9 10.8.1 5.7.5 16.7.9 24.4.3 7.7.8 17.8 1 22.5.4 9 1 20.2 2.1 42 1.2 23.1 1.8 20.2-5 21.6-6.5 1.3-26.3 1.1-31.1-.3l-3-.9.3-9c.2-4.9.5-13 .8-17.9.3-5 .5-9.6.4-10.3v-2.5c-.1-.6.2-6.2.5-12.2.5-11.6.9-21.3 2-49.2l.7-17.1-2.4-.8c-3.5-1.2-4.5-1.3-14.7-1.8-5.1-.2-9.8-.9-10.3-1.4-.7-.7.1-3.9 2.1-9.4 1.7-4.7 3.1-8.7 3.1-9.1 0-.3.5-1.8 1.2-3.4.6-1.5 1.2-3.3 1.3-3.8.2-.6 1.6-4.6 3.2-9 1.7-4.4 3.1-8.3 3.2-8.7.3-1.5 1-3.4 3.1-9.3 1.2-3.3 2.3-6.7 2.5-7.5.2-.8 1.2-3.6 2.4-6.3 1.1-2.6 1.8-4.7 1.6-4.7-.3 0 .2-1.7 1-3.7 1.6-3.8 9.5-26.3 14.8-42 2.6-8 3.9-10.2 4.3-7.5zM471 341c8.5 4.8 12.6 7.4 22.4 14.4l6.9 4.9-4.4 1.4c-2.4.7-9.3 2.7-15.4 4.4-19.3 5.4-23.6 7.8-35.7 19.9-10.1 10.2-11.8 16.8-6.4 25 5.8 8.8 30.7 21.4 48.6 24.6 1.4.2 4.1.7 6 1.1 1.9.3 4 .7 4.5.7.6.1 2.8.5 5 .9 2.2.3 6.5.9 9.5 1.3s6.6.8 8 1c6.8 1 23.2 1.7 38 1.7 20.7 0 33.7-1 50.5-4 1.7-.3 3.9-.6 5-.7 1.5-.2 10.2-2 14.5-3.1.3-.1 3.2-.7 6.5-1.4s6.5-1.6 7-1.9c.6-.4 1.5-.7 2.2-.8 2.7-.4 20.5-9.5 26-13.2 3.3-2.2 7.2-5.6 8.7-7.6 3-4 5-12.8 3.2-14.6-.5-.5-.7-1-.3-1 1.5 0-3.3-7.7-7.8-12.7-6.2-7-10.3-9.5-20-11.9-2.5-.6-14.4-.5-17.6.2-1.3.2-4.2.7-6.4 1-3.8.5-4.1.4-5.4-2.8-2.5-6.2-6.3-18.3-6.7-21.1-.2-1.6-.6-3.2-.9-3.7-.8-1.2 2.6-1.7 5.5-.9 1.4.4 4.3 1 6.5 1.3 2.2.3 5.4.8 7 1.1 1.7.3 3.9.8 5 1 1.9.3 9 2 12.8 3 2.2.6 5.6 1.4 8.4 1.9 1.3.3 2.6.7 3.1 1 .5.3 1.9.7 3.3 1 1.3.3 3.5.8 4.9 1.1 1.4.3 3.6.8 5 1.1 6.9 1.3 7.7 3 2.5 4.7-1.7.6-3.5 1.6-4.2 2.3-1.6 1.6.2 3.6 6 6.6 12 6 16.5 10.4 21.8 20.8 4.4 8.7 3.9 18.4-1.3 25.5-3.8 5-10.9 12.1-15.4 15-8.6 5.7-19.2 10.5-22.8 10.4-.5-.1-1.2.3-1.5.9-.5.7-11.6 4.2-18.4 5.7-1 .2-2.7.7-3.7 1-1 .3-2.7.8-3.7 1-1 .2-6.1 1.3-11.3 2.5-11.2 2.4-13.3 2.8-18 3.6-1.9.3-4.6.7-6 1-1.4.2-5.2.7-8.5 1-3.3.3-6.3.8-6.6 1-1.5.9-22.5 1.8-41.4 1.8-23.3-.1-31.3-.6-47.2-3-2.1-.3-5.1-.7-6.6-.9-1.5-.2-5.4-.9-8.5-1.5-3.1-.6-6.9-1.4-8.4-1.6-1.5-.3-8.7-2.1-16-4-7.3-1.9-14-3.6-14.8-3.8-1.9-.3-11.9-3.5-14.5-4.6-1.1-.5-3.2-1.1-4.7-1.4-1.5-.4-4-1.1-5.5-1.7-1.5-.6-3-1-3.3-1.1-.8 0-6.3-3.1-8-4.5-.8-.6-1.8-1.2-2.2-1.2-1.6-.2-14.4-9.7-18.1-13.5-12.6-12.8-12.4-31.8.4-44.5 5.3-5.3 19.8-15.4 29.9-20.9 12.2-6.6 28.6-12.9 35.7-13.6 1.2-.1 2.5-.5 2.8-.8 1.5-1.5 7.5.3 14.5 4.2zm101.1 127.7c.1 1 .3 4.9.4 8.8.4 8.6 1.3 30.7 2.1 48 .3 7.1.7 17.7.9 23.5.2 5.8.7 17.5 1 26.1l.6 15.6-6.8.3c-16.8.7-40.9-.1-44.7-1.6-1.2-.5-1.6-1.4-1.2-3.3.8-3.9 2-25.8 3.2-61.1 1-32 1.2-36.6 1.9-46.5.4-5.5.9-10.3 1.2-10.8.2-.4 9.6-.7 20.9-.7 18.7 0 20.4.1 20.5 1.7zM169.6 851.7c-.3.3-4.3.5-8.9.5l-8.4-.1.1 13.7c.1 9.7.4 13.7 1.3 13.7.6 0 1.4.3 1.8.7.4.3 1.9.3 3.4-.2 1.6-.4 3.4-.4 4.1 0 .7.5 2.4.4 3.7-.1 1.2-.5 2.3-.5 2.3-.1s2.9.7 6.5.7 6.5-.3 6.5-.7c0-.4 1.3-.3 2.9.2 1.5.4 3.3.5 4 .1.6-.4 2.6-.6 4.3-.4 3.3.4 14.8.5 16.4.2.5-.1 1.1 0 1.4.1 1.6.6 7 .4 7-.3 0-.5.5-.5 1-.2 1.5.9 11 1.2 11 .3 0-.3 1.3-.3 2.9.2 1.6.4 3.2.6 3.5.3.7-.8 8.4-.8 9.2 0 .3.3 1.7.2 3-.3s2.4-.6 2.4-.1 1.5.5 3.4.1 4-.4 4.7 0c.7.5 2.3.4 3.6-.1 1.2-.5 2.3-.5 2.3-.1s2.9.7 6.5.7 6.5-.3 6.5-.7c0-.4 1.3-.3 2.9.2 1.5.4 3.3.5 4 .1.6-.4 2.6-.6 4.3-.4 3.3.4 14.8.5 16.4.2.5-.1 1.1 0 1.4.1 1.6.6 7 .4 7-.3 0-.5.5-.5 1-.2 1.5.9 11 1.2 11 .3 0-.3 1.3-.3 2.9.2 1.6.4 3.2.6 3.5.3.7-.8 8.4-.8 9.2 0 .3.3 1.7.2 3-.3s2.4-.6 2.4-.1 1.5.5 3.4.1 4-.4 4.7 0c.7.5 2.3.4 3.6-.1 1.2-.5 2.3-.5 2.3-.1s2.9.7 6.5.7 6.5-.3 6.5-.7c0-.4 1.3-.3 2.9.2 1.6.4 3.2.6 3.5.3.7-.8 8.4-.8 9.2 0 .3.3 1.7.2 3-.3 1.4-.6 2.6-.6 2.9 0 .3.6 1.5.6 3 0 1.4-.5 2.5-.6 2.5-.2 0 .7 16.6.6 18.7-.2.7-.3 1.5-.1 1.8.4.3.6 1.5.6 3 0s2.7-.6 3 0c.3.6 1.5.6 3 0 1.4-.5 2.5-.6 2.5-.2 0 .7 16.6.6 18.7-.2.7-.3 1.5-.1 1.8.4.3.6 1.5.6 3 0s2.7-.6 3 0c.3.6 1.5.6 3 0 1.4-.5 2.5-.6 2.5-.2 0 .7 16.6.6 18.7-.2.7-.3 1.5-.1 1.8.4.3.6 1.5.6 3 0s2.7-.6 3 0c.3.6 1.5.6 3 0 1.4-.5 2.5-.6 2.5-.2 0 .4 2.8.6 6.2.5 11.3-.3 12.2-.3 18.9-.3 3.7.1 7.1 0 7.5-.1.5-.1 1.1 0 1.4.1 1.6.6 7 .4 7-.3 0-.5.5-.5 1-.2 1.5.9 11 1.2 11 .3 0-.3 1.3-.3 2.9.2 1.6.4 3.2.6 3.5.3.7-.8 8.4-.8 9.2 0 .3.3 1.7.2 3-.3s2.4-.6 2.4-.1 1.5.5 3.4.1 4-.4 4.7 0c.7.5 2.3.4 3.6-.1 1.2-.5 2.3-.5 2.3-.1s2.9.7 6.5.7 6.5-.3 6.5-.7c0-.4 1.3-.3 2.9.2 1.5.4 3.3.5 4 .1.6-.4 2.6-.6 4.3-.4 3.3.4 14.8.5 16.4.2.5-.1 1.1 0 1.4.1 1.4.5 7 .4 7-.2 0-.4 1.3-.3 2.9.2 1.5.4 3.4.4 4.2 0 .7-.5 1.7-.6 2.3-.3.8.6 11.6.7 14.2.2.5-.1 1.1 0 1.4.1 1.6.6 7 .4 7-.3 0-.5.5-.5 1-.2 1.5.9 11 1.2 11 .3 0-.3 1.3-.3 2.9.2 1.6.4 3.2.6 3.5.3.7-.8 8.4-.8 9.2 0 .3.3 1.7.2 3-.3s2.4-.6 2.4-.1 1.5.5 3.4.1 4-.4 4.7 0c.7.5 2.3.4 3.6-.1 1.2-.5 2.3-.5 2.3-.1s2.9.7 6.5.7 6.5-.3 6.5-.7c0-.4 1.3-.3 2.9.2 1.5.4 3.3.5 4 .1.6-.4 2.6-.6 4.3-.4 3.3.4 14.8.5 16.4.2.5-.1 1.1 0 1.4.1 1.4.5 7 .4 7-.2 0-.4 1.2-.3 2.7.1 1.6.4 4 .4 5.5 0 1.6-.4 3-.3 3.3.1.3.5 1.6.5 3 0 1.5-.6 2.7-.6 3 0 .3.6 1.5.6 3 0 1.4-.5 2.5-.6 2.5-.2 0 .7 16.6.6 18.7-.2.7-.3 1.5-.1 1.8.4.3.6 1.5.6 3 0s2.7-.6 3 0c.3.6 1.5.6 3 0 1.4-.5 2.5-.6 2.5-.2 0 .7 16.6.6 18.7-.2.7-.3 1.5-.1 1.8.4.3.6 1.5.6 3 0s2.7-.6 3 0c.3.6 1.5.6 3 0 1.4-.5 2.5-.6 2.5-.2 0 .7 16.6.6 18.7-.2.7-.3 1.5-.1 1.8.4.3.6 1.5.6 3 0s2.7-.6 3 0c.3.6 1.5.6 3 0 1.4-.5 2.5-.6 2.5-.2 0 .4 4.7.7 10.5.7s10.5-.3 10.5-.7c0-.4 1.3-.3 2.9.2 1.6.4 3.2.6 3.5.3.7-.8 8.4-.8 9.2 0 .3.3 1.7.2 3-.3s2.4-.6 2.4-.1 1.5.5 3.4.1 4-.4 4.7 0c.7.5 2.3.4 3.6-.1 1.2-.5 2.3-.5 2.3-.1s2.5.7 5.5.7 5.5-.3 5.5-.6c0-.4.8-.6 1.7-.5 1.5.1 1.8-1.1 1.9-9.9.1-5.6-.1-11.6-.5-13.5-.7-3.8-.8-3.8-10.6-3.9-16.3-.2-21.1-.2-22.2-.2h-11.5c-6.7 0-17.8.1-19.8.2h-3.7c-1.5-.1-3.7-.1-5.5 0-2.5.1-12.3 0-15.3-.2-1.6 0-3.4-.1-4 0h-9c-4.4 0-9.1.1-10.5.2h-4c-.8-.1-2.6-.1-4 0h-4c-.8-.1-2.6-.1-4 0h-3.7c-1.5-.1-3.7-.1-5.5 0-2.5.1-12.3 0-15.3-.2-1.6 0-3.4-.1-4 0h-9c-4.4 0-9.1.1-10.5.2-3.4.1-4.2.1-6.5-.4-1.1-.2-3.4-.1-5.2.4-1.8.4-3.5.3-3.8-.2-.3-.4-1.6-.5-2.8 0-1.2.5-3.1.5-4.2.1s-3.4-.4-5.2.1c-1.8.4-3.6.3-3.9-.2-.3-.5-1-.7-1.5-.3-.6.3-3.6.5-6.7.5-3.1-.1-6.8-.1-8.2 0h-3.7c-1.5-.1-3.7-.1-5.5 0-2.5.1-12.3 0-15.3-.2-1.6 0-3.4-.1-4 0h-9c-4.4 0-9.1.1-10.5.2-3.4.1-4.2.1-6.5-.4-1.1-.2-3.4-.1-5.2.4-1.8.4-3.5.3-3.8-.2-.3-.4-1.6-.5-2.8 0-1.2.5-3.1.5-4.2.1s-3.4-.4-5.2.1c-1.8.4-3.5.3-3.8-.2-.3-.4-1.6-.5-2.8 0-1.2.5-3.1.5-4.2.1s-3.4-.4-5.2.1c-1.8.4-3.5.3-3.8-.2-.3-.4-1.6-.5-2.8 0-1.2.5-3.1.5-4.2.1s-3.4-.4-5.2.1c-1.8.4-3.6.3-3.9-.2-.3-.5-1-.7-1.5-.3-.6.3-3.6.5-6.7.5-3.1-.1-6.8-.1-8.2 0h-3.7c-1.5-.1-3.7-.1-5.5 0-2.5.1-12.3 0-15.3-.2-1.6 0-3.4-.1-4 0h-9c-4.4 0-9.1.1-10.5.2-3.4.1-4.2.1-6.5-.4-1.1-.2-3.4-.1-5.2.4-1.8.4-3.5.3-3.8-.2-.3-.4-1.6-.5-2.8 0-1.2.5-3.1.5-4.2.1s-3.4-.4-5.2.1c-1.8.4-3.6.3-3.9-.2-.3-.5-1-.7-1.5-.3-.6.3-3.6.5-6.7.5-3.1-.1-6.8-.1-8.2 0h-3.7c-1.5-.1-3.7-.1-5.5 0-2.5.1-12.3 0-15.3-.2-1.6 0-3.4-.1-4 0h-9c-4.4 0-9.1.1-10.5.2h-4c-.8-.1-2.6-.1-4 0h-4c-.8-.1-2.6-.1-4 0h-3.7c-1.5-.1-3.7-.1-5.5 0-2.5.1-12.3 0-15.3-.2-1.6 0-3.4-.1-4 0h-9c-4.4 0-9.1.1-10.5.2h-3.7c-1.5-.1-3.7-.1-5.5 0-2.5.1-12.3 0-15.3-.2-1.6 0-3.7-.1-4.5 0h-25.5c-4.7 0-5.4 0-12.4.1-2.4 0-4.6-.1-4.8-.3-.2-.3-2-.1-3.9.3s-3.6.4-3.9-.1c-.3-.4-1.6-.5-2.8 0-1.2.5-3.1.5-4.2.1s-3.4-.4-5.2.1c-1.8.4-3.6.3-3.9-.2-.3-.5-1-.7-1.5-.3-.6.3-3.6.5-6.7.5-3.1-.1-6.8-.1-8.2 0h-3.7c-1.5-.1-3.7-.1-5.5 0-2.5.1-12.3 0-15.3-.2-1.6 0-3.4-.1-4 0h-9c-4.4 0-9.1.1-10.5.2-3.4.1-4.2.1-6.5-.4-1.1-.2-3.4-.1-5.2.4-1.8.4-3.5.3-3.8-.2-.3-.4-1.6-.5-2.8 0-1.2.5-3.1.5-4.2.1s-3.4-.4-5.2.1c-1.8.4-3.5.3-3.8-.2-.3-.4-1.6-.5-2.8-.1-1.2.4-3.5.6-5.2.5-6.6-.5-13.7-.5-14.1 0-.3.3-2 .1-3.9-.3s-3.6-.5-3.9-.3zM654.1 959.6l-2.6 1-.1 71.7v71.7h13.8c12.4 0 13.8-.2 13.9-1.8V1061c0-21.7.2-40.3.5-41.3 1.1-3.4 2.2-2.6 13 9.8 3.3 3.9 12.5 15.1 20.4 25 21.4 27 27.9 35 36.3 44.7l4 4.8h11.4c8.3 0 11.3-.3 11.4-1.3 0-.6.1-32.8.2-71.4l.2-70.3-2.6-.9c-3.7-1.3-23.3-.9-25 .6-1.2.9-1.4 8.5-1.4 44.7 0 34.8-.2 43.7-1.3 44.1-1 .3-36-42.5-69.5-85-4.7-6-4.4-5.9-12.4-6-4.1 0-8.7.5-10.2 1.1zM810.3 959c-.2.3-1.4.5-2.6.5-1.9 0-2.1.6-2.4 10.5-1.3 34.2-.7 72.4 1.3 82.3.3 1.6.7 3.8.9 5 1 6.3 4.2 15.3 7.5 21.6 3.2 5.9 11.9 16.1 13.8 16.1.6 0 1.2.4 1.4.8.2.5 3.5 2.4 7.3 4.3l7 3.4 20.5.3c27.3.5 33.4-1 45.5-11.1 4-3.4 13.4-15.7 12-15.7-.3 0 .1-1 .9-2.3 1.7-2.7 5.5-14.8 6.2-19.7.2-1.9.9-5 1.4-7 .5-1.9.9-4.4.9-5.5 0-1.1.2-3.8.5-6 .5-2.8 1-68.5.6-76.6 0-.8-17.3-1.2-26.5-.6l-3 .2-.1 43.5c0 23.9-.4 44.5-.8 45.7-.4 1.2-.9 3.1-1.1 4.2-.3 1.2-.7 2.9-.9 3.9-1.3 5.9-8.7 17.2-11.3 17.2-.6 0-1.3.7-1.7 1.5-.3.8-.9 1.4-1.3 1.3-.4 0-2.1.5-3.8 1.2-1.6.7-4.7 1.3-6.7 1.4-2.1 0-3.8.4-3.8.7 0 .3-1.2.4-2.7.2-1.6-.1-4.9-.5-7.5-.7-2.6-.3-6.2-1.2-8.1-1.9-4.2-1.8-10.7-7.4-10.7-9.3 0-.8-.4-1.4-.9-1.4s-1.1-.8-1.4-1.8c-.3-.9-1.5-4.2-2.7-7.2-2.1-5.4-2.5-7-3.5-12-.3-1.4-.8-3.6-1.1-5-.3-1.4-.5-20.3-.4-42.1l.1-39.6-5.8-.2c-12.8-.6-16.5-.6-17-.1zM173.6 959.9c-.1.3-.2 32.8-.2 72.1l.1 71.5 13.8.3 13.7.3V959.4h-13.6c-7.4 0-13.6.2-13.8.5zM233.3 960.3c-.4.6-.7 123.2-.4 139.7l.1 3.6h49.5c36.5-.1 49.6-.4 49.9-1.2 1-2.7 0-20.4-1.2-21.6-1-1-9.3-1.3-36-1.3h-34.7v-36l30.3-.3 30.2-.2.2-2.3c.9-13.6 0-20.1-3.1-21.5-.9-.5-14.1-.8-29.3-.7l-27.8.2-.1-3.6c-.1-4.3-.1-24.5 0-28.1l.1-2.5h70.8l-.3-11.8c-.1-6.5-.6-12.1-.9-12.5-1-1-96.7-.9-97.3.1zM356 964.5c-.1 10.6-.1 114.6 0 126.5v12.6h49.8c27.3 0 49.9-.3 50.2-.7.8-1.1.4-15.8-.4-20.1l-.8-3.7h-69.4c-.7-.1-1-6.1-1.1-18.1 0-17.7 0-18 2.1-18 1.1-.1 14.8-.1 30.4-.1l28.2-.1v-10c0-5.4-.4-10.7-1-11.7-.9-1.7-3-1.8-29.2-1.9-15.6 0-28.8-.1-29.3-.1-1.3-.1-1.4-34.3-.1-35.2.5-.4 2.2-.3 3.7.1 1.6.5 2.9.5 2.9 0s1.2-.5 2.8-.1c1.5.4 3.9.4 5.4 0 1.5-.4 2.9-.5 3.2-.2.8.9 7.6.9 7.6 0 0-.4.5-.5 1-.2 1.5.9 10 1.1 10 .3 0-.4.6-.5 1.4-.2 1.9.7 13.6 1.1 13.6.4 0-.7 7-.4 7.6.3.3.3 1.8.1 3.4-.3 1.6-.5 3-.4 3.2.1.2.4.9.5 1.7 0 1-.6 1.3-3.3 1.2-10.2 0-5.2-.2-10.3-.5-11.4-.2-1.1-.5-2.2-.5-2.6-.1-.3-21.9-.5-48.6-.5H356v5.1zM479.5 959.9c-.8.8-.5 143.1.3 143.2.4.1 23 .2 50.3.3l49.6.2-.3-9.1c-.2-4.9-.6-10.5-.9-12.3l-.6-3.2h-71.6l.2-16.3c.1-8.9.6-17.1 1.1-18.2.9-1.9 1.9-2 30.9-2h30l-.1-9c-.1-5-.3-10.1-.6-11.5l-.5-2.5-29.9-.1c-16.4-.1-30.2-.2-30.6-.3-.5-.1-.4-18.4.2-32.3.1-1 .6-2 1.2-2.4 1.4-.9 31.2-.9 32.6 0 .7.4 1.2.4 1.2-.1 0-.9 23.7-1 24.6 0 .3.3 1.6.3 2.8-.1 1.1-.4 3.3-.7 4.9-.6 2.4.1 2.7-.2 2.9-3.5.4-8.7-.2-18.5-1.2-19.5-.8-.8-15.2-1.1-48.6-1.2-26.1 0-47.7.2-47.9.5z"/></svg>